<mxfile host="www.draw.io" modified="2020-01-06T06:55:23.889Z" agent="Mozilla/5.0 (Windows NT 10.0; Win64; x64) AppleWebKit/537.36 (KHTML, like Gecko) Chrome/79.0.3945.88 Safari/537.36" etag="A7HX3Bmct0lAGt4AbMYr" version="12.4.8" type="github">
  <diagram id="cFRN1qiqrtDCCVnT4NeD" name="Page-1">
    <mxGraphModel dx="1800" dy="588" grid="1" gridSize="10" guides="1" tooltips="1" connect="1" arrows="1" fold="1" page="1" pageScale="1" pageWidth="827" pageHeight="1169" math="0" shadow="0">
      <root>
        <mxCell id="0"/>
        <mxCell id="1" parent="0"/>
        <mxCell id="iUNpqNU1USU1O7P9q8eT-1" value="&lt;span style=&quot;background-color: rgb(204 , 229 , 255)&quot;&gt;伝え手&lt;/span&gt;" style="shape=umlActor;verticalLabelPosition=bottom;labelBackgroundColor=#ffffff;verticalAlign=top;html=1;outlineConnect=0;" vertex="1" parent="1">
          <mxGeometry x="160" y="185" width="30" height="60" as="geometry"/>
        </mxCell>
        <mxCell id="iUNpqNU1USU1O7P9q8eT-2" value="&lt;span style=&quot;background-color: rgb(213 , 232 , 212)&quot;&gt;聞き手&lt;/span&gt;" style="shape=umlActor;verticalLabelPosition=bottom;labelBackgroundColor=#ffffff;verticalAlign=top;html=1;outlineConnect=0;" vertex="1" parent="1">
          <mxGeometry x="470" y="185" width="30" height="65" as="geometry"/>
        </mxCell>
        <mxCell id="iUNpqNU1USU1O7P9q8eT-3" value="テーマ" style="ellipse;whiteSpace=wrap;html=1;" vertex="1" parent="1">
          <mxGeometry x="300" y="80" width="70" height="40" as="geometry"/>
        </mxCell>
        <mxCell id="iUNpqNU1USU1O7P9q8eT-4" value="" style="curved=1;endArrow=classic;html=1;entryX=1;entryY=0.5;entryDx=0;entryDy=0;" edge="1" parent="1" target="iUNpqNU1USU1O7P9q8eT-3">
          <mxGeometry width="50" height="50" relative="1" as="geometry">
            <mxPoint x="480" y="170" as="sourcePoint"/>
            <mxPoint x="210" y="260" as="targetPoint"/>
            <Array as="points">
              <mxPoint x="460" y="100"/>
            </Array>
          </mxGeometry>
        </mxCell>
        <mxCell id="iUNpqNU1USU1O7P9q8eT-5" value="答え" style="text;html=1;strokeColor=none;fillColor=none;align=center;verticalAlign=middle;whiteSpace=wrap;rounded=0;" vertex="1" parent="1">
          <mxGeometry x="315" y="140" width="40" height="20" as="geometry"/>
        </mxCell>
        <mxCell id="iUNpqNU1USU1O7P9q8eT-9" value="" style="curved=1;endArrow=classic;html=1;" edge="1" parent="1">
          <mxGeometry width="50" height="50" relative="1" as="geometry">
            <mxPoint x="200" y="190" as="sourcePoint"/>
            <mxPoint x="460" y="190" as="targetPoint"/>
            <Array as="points">
              <mxPoint x="340" y="140"/>
            </Array>
          </mxGeometry>
        </mxCell>
        <mxCell id="iUNpqNU1USU1O7P9q8eT-11" value="" style="curved=1;endArrow=classic;html=1;" edge="1" parent="1">
          <mxGeometry width="50" height="50" relative="1" as="geometry">
            <mxPoint x="450" y="240" as="sourcePoint"/>
            <mxPoint x="200" y="240" as="targetPoint"/>
            <Array as="points">
              <mxPoint x="340" y="270"/>
            </Array>
          </mxGeometry>
        </mxCell>
        <mxCell id="iUNpqNU1USU1O7P9q8eT-12" value="期待する反応" style="text;html=1;strokeColor=none;fillColor=none;align=center;verticalAlign=middle;whiteSpace=wrap;rounded=0;" vertex="1" parent="1">
          <mxGeometry x="292.5" y="260" width="85" height="20" as="geometry"/>
        </mxCell>
        <mxCell id="iUNpqNU1USU1O7P9q8eT-33" value="&lt;span style=&quot;background-color: rgb(204 , 229 , 255)&quot;&gt;伝え手&lt;/span&gt;" style="shape=umlActor;verticalLabelPosition=bottom;labelBackgroundColor=#ffffff;verticalAlign=top;html=1;outlineConnect=0;" vertex="1" parent="1">
          <mxGeometry x="161" y="452" width="30" height="60" as="geometry"/>
        </mxCell>
        <mxCell id="iUNpqNU1USU1O7P9q8eT-34" value="&lt;span style=&quot;background-color: rgb(213 , 232 , 212)&quot;&gt;聞き手&lt;/span&gt;" style="shape=umlActor;verticalLabelPosition=bottom;labelBackgroundColor=#ffffff;verticalAlign=top;html=1;outlineConnect=0;" vertex="1" parent="1">
          <mxGeometry x="471" y="452" width="30" height="60" as="geometry"/>
        </mxCell>
        <mxCell id="iUNpqNU1USU1O7P9q8eT-35" value="テーマ" style="ellipse;whiteSpace=wrap;html=1;" vertex="1" parent="1">
          <mxGeometry x="301" y="347" width="70" height="40" as="geometry"/>
        </mxCell>
        <mxCell id="iUNpqNU1USU1O7P9q8eT-36" value="" style="curved=1;endArrow=classic;html=1;entryX=0;entryY=0.5;entryDx=0;entryDy=0;" edge="1" parent="1" target="iUNpqNU1USU1O7P9q8eT-35">
          <mxGeometry width="50" height="50" relative="1" as="geometry">
            <mxPoint x="190" y="440" as="sourcePoint"/>
            <mxPoint x="211" y="527" as="targetPoint"/>
            <Array as="points">
              <mxPoint x="200" y="380"/>
            </Array>
          </mxGeometry>
        </mxCell>
        <mxCell id="iUNpqNU1USU1O7P9q8eT-37" value="答え" style="text;html=1;strokeColor=none;fillColor=none;align=center;verticalAlign=middle;whiteSpace=wrap;rounded=0;" vertex="1" parent="1">
          <mxGeometry x="316" y="407" width="40" height="20" as="geometry"/>
        </mxCell>
        <mxCell id="iUNpqNU1USU1O7P9q8eT-38" value="" style="curved=1;endArrow=classic;html=1;" edge="1" parent="1">
          <mxGeometry width="50" height="50" relative="1" as="geometry">
            <mxPoint x="201" y="457" as="sourcePoint"/>
            <mxPoint x="461" y="457" as="targetPoint"/>
            <Array as="points">
              <mxPoint x="341" y="407"/>
            </Array>
          </mxGeometry>
        </mxCell>
        <mxCell id="iUNpqNU1USU1O7P9q8eT-39" value="" style="curved=1;endArrow=classic;html=1;" edge="1" parent="1">
          <mxGeometry width="50" height="50" relative="1" as="geometry">
            <mxPoint x="451" y="507" as="sourcePoint"/>
            <mxPoint x="201" y="507" as="targetPoint"/>
            <Array as="points">
              <mxPoint x="341" y="537"/>
            </Array>
          </mxGeometry>
        </mxCell>
        <mxCell id="iUNpqNU1USU1O7P9q8eT-40" value="期待する反応" style="text;html=1;strokeColor=none;fillColor=none;align=center;verticalAlign=middle;whiteSpace=wrap;rounded=0;" vertex="1" parent="1">
          <mxGeometry x="293.5" y="527" width="85" height="20" as="geometry"/>
        </mxCell>
        <mxCell id="iUNpqNU1USU1O7P9q8eT-41" value="&lt;span style=&quot;background-color: rgb(230 , 208 , 222)&quot;&gt;自問自答&lt;/span&gt;" style="shape=umlActor;verticalLabelPosition=bottom;labelBackgroundColor=#ffffff;verticalAlign=top;html=1;outlineConnect=0;" vertex="1" parent="1">
          <mxGeometry x="320" y="740" width="30" height="60" as="geometry"/>
        </mxCell>
        <mxCell id="iUNpqNU1USU1O7P9q8eT-42" value="テーマ" style="ellipse;whiteSpace=wrap;html=1;" vertex="1" parent="1">
          <mxGeometry x="302" y="630" width="70" height="40" as="geometry"/>
        </mxCell>
        <mxCell id="iUNpqNU1USU1O7P9q8eT-43" value="" style="curved=1;endArrow=classic;html=1;entryX=0;entryY=0.5;entryDx=0;entryDy=0;" edge="1" parent="1" target="iUNpqNU1USU1O7P9q8eT-42">
          <mxGeometry width="50" height="50" relative="1" as="geometry">
            <mxPoint x="302" y="780" as="sourcePoint"/>
            <mxPoint x="212" y="810" as="targetPoint"/>
            <Array as="points">
              <mxPoint x="260" y="770"/>
              <mxPoint x="250" y="690"/>
            </Array>
          </mxGeometry>
        </mxCell>
        <mxCell id="iUNpqNU1USU1O7P9q8eT-44" value="答え" style="text;html=1;strokeColor=none;fillColor=none;align=center;verticalAlign=middle;whiteSpace=wrap;rounded=0;" vertex="1" parent="1">
          <mxGeometry x="317" y="690" width="40" height="20" as="geometry"/>
        </mxCell>
        <mxCell id="iUNpqNU1USU1O7P9q8eT-45" value="" style="curved=1;endArrow=classic;html=1;" edge="1" parent="1">
          <mxGeometry width="50" height="50" relative="1" as="geometry">
            <mxPoint x="310" y="770" as="sourcePoint"/>
            <mxPoint x="360" y="770" as="targetPoint"/>
            <Array as="points">
              <mxPoint x="290" y="760"/>
              <mxPoint x="290" y="730"/>
              <mxPoint x="340" y="710"/>
              <mxPoint x="380" y="730"/>
              <mxPoint x="380" y="760"/>
            </Array>
          </mxGeometry>
        </mxCell>
        <mxCell id="iUNpqNU1USU1O7P9q8eT-46" value="" style="curved=1;endArrow=classic;html=1;" edge="1" parent="1">
          <mxGeometry width="50" height="50" relative="1" as="geometry">
            <mxPoint x="360" y="790" as="sourcePoint"/>
            <mxPoint x="310" y="790" as="targetPoint"/>
            <Array as="points">
              <mxPoint x="400" y="810"/>
              <mxPoint x="340" y="860"/>
              <mxPoint x="270" y="820"/>
            </Array>
          </mxGeometry>
        </mxCell>
        <mxCell id="iUNpqNU1USU1O7P9q8eT-47" value="期待する反応" style="text;html=1;strokeColor=none;fillColor=none;align=center;verticalAlign=middle;whiteSpace=wrap;rounded=0;" vertex="1" parent="1">
          <mxGeometry x="300" y="850" width="85" height="20" as="geometry"/>
        </mxCell>
        <mxCell id="iUNpqNU1USU1O7P9q8eT-52" value="①テーマはなにか。&lt;br&gt;&lt;div&gt;&lt;span&gt;②「答え」で聞き手にどんな反応をしてもらいたいか（期待する反応は何か）&lt;/span&gt;&lt;/div&gt;" style="shape=callout;whiteSpace=wrap;html=1;perimeter=calloutPerimeter;base=24;size=30;position=0.54;position2=1;align=left;" vertex="1" parent="1">
          <mxGeometry y="75" width="160" height="110" as="geometry"/>
        </mxCell>
        <mxCell id="iUNpqNU1USU1O7P9q8eT-54" value="答え" style="rounded=0;whiteSpace=wrap;html=1;" vertex="1" parent="1">
          <mxGeometry x="815" y="194" width="70" height="33" as="geometry"/>
        </mxCell>
        <mxCell id="iUNpqNU1USU1O7P9q8eT-55" value="結論" style="rounded=0;whiteSpace=wrap;html=1;" vertex="1" parent="1">
          <mxGeometry x="815" y="287" width="70" height="33" as="geometry"/>
        </mxCell>
        <mxCell id="iUNpqNU1USU1O7P9q8eT-56" value="根拠&lt;span style=&quot;color: rgba(0 , 0 , 0 , 0) ; font-family: monospace ; font-size: 0px ; white-space: nowrap&quot;&gt;%3CmxGraphModel%3E%3Croot%3E%3CmxCell%20id%3D%220%22%2F%3E%3CmxCell%20id%3D%221%22%20parent%3D%220%22%2F%3E%3CmxCell%20id%3D%222%22%20value%3D%22%E7%B5%90%E8%AB%96%22%20style%3D%22rounded%3D0%3BwhiteSpace%3Dwrap%3Bhtml%3D1%3B%22%20vertex%3D%221%22%20parent%3D%221%22%3E%3CmxGeometry%20x%3D%22910%22%20y%3D%22287%22%20width%3D%2270%22%20height%3D%2233%22%20as%3D%22geometry%22%2F%3E%3C%2FmxCell%3E%3C%2Froot%3E%3C%2FmxGraphModel%3E&lt;/span&gt;" style="rounded=0;whiteSpace=wrap;html=1;" vertex="1" parent="1">
          <mxGeometry x="815" y="374" width="70" height="33" as="geometry"/>
        </mxCell>
        <mxCell id="iUNpqNU1USU1O7P9q8eT-57" value="方法" style="rounded=0;whiteSpace=wrap;html=1;" vertex="1" parent="1">
          <mxGeometry x="925" y="374" width="70" height="33" as="geometry"/>
        </mxCell>
        <mxCell id="iUNpqNU1USU1O7P9q8eT-58" value="" style="endArrow=none;html=1;exitX=0.5;exitY=1;exitDx=0;exitDy=0;entryX=0.5;entryY=0;entryDx=0;entryDy=0;" edge="1" parent="1" source="iUNpqNU1USU1O7P9q8eT-54" target="iUNpqNU1USU1O7P9q8eT-55">
          <mxGeometry width="50" height="50" relative="1" as="geometry">
            <mxPoint x="765" y="290" as="sourcePoint"/>
            <mxPoint x="815" y="240" as="targetPoint"/>
          </mxGeometry>
        </mxCell>
        <mxCell id="iUNpqNU1USU1O7P9q8eT-59" value="" style="endArrow=none;html=1;exitX=0.5;exitY=1;exitDx=0;exitDy=0;entryX=0.5;entryY=0;entryDx=0;entryDy=0;" edge="1" parent="1" source="iUNpqNU1USU1O7P9q8eT-55" target="iUNpqNU1USU1O7P9q8eT-56">
          <mxGeometry width="50" height="50" relative="1" as="geometry">
            <mxPoint x="755" y="313.5" as="sourcePoint"/>
            <mxPoint x="825" y="313.5" as="targetPoint"/>
          </mxGeometry>
        </mxCell>
        <mxCell id="iUNpqNU1USU1O7P9q8eT-60" value="" style="endArrow=none;html=1;exitX=1;exitY=1;exitDx=0;exitDy=0;entryX=0.5;entryY=0;entryDx=0;entryDy=0;" edge="1" parent="1" source="iUNpqNU1USU1O7P9q8eT-55" target="iUNpqNU1USU1O7P9q8eT-57">
          <mxGeometry width="50" height="50" relative="1" as="geometry">
            <mxPoint x="860" y="330" as="sourcePoint"/>
            <mxPoint x="860" y="384" as="targetPoint"/>
          </mxGeometry>
        </mxCell>
        <mxCell id="iUNpqNU1USU1O7P9q8eT-63" value="" style="ellipse;shape=cloud;whiteSpace=wrap;html=1;align=left;" vertex="1" parent="1">
          <mxGeometry x="490" y="112" width="230" height="133" as="geometry"/>
        </mxCell>
        <mxCell id="iUNpqNU1USU1O7P9q8eT-64" value="&lt;span style=&quot;text-align: left ; white-space: normal&quot;&gt;答えを使って・・・&lt;/span&gt;&lt;br style=&quot;text-align: left ; white-space: normal&quot;&gt;&lt;br style=&quot;text-align: left ; white-space: normal&quot;&gt;&lt;span style=&quot;text-align: left ; white-space: normal&quot;&gt;理解したい。社内の10分の説明で使いたい。顧客に見せて納得させたい。等・・・・&lt;/span&gt;" style="text;html=1;strokeColor=none;fillColor=none;align=center;verticalAlign=middle;whiteSpace=wrap;rounded=0;" vertex="1" parent="1">
          <mxGeometry x="530" y="148" width="160" height="70" as="geometry"/>
        </mxCell>
        <mxCell id="iUNpqNU1USU1O7P9q8eT-65" value="" style="ellipse;shape=cloud;whiteSpace=wrap;html=1;align=left;" vertex="1" parent="1">
          <mxGeometry x="-15" y="203.5" width="180" height="106.5" as="geometry"/>
        </mxCell>
        <mxCell id="iUNpqNU1USU1O7P9q8eT-69" value="&lt;span style=&quot;text-align: left ; white-space: normal&quot;&gt;答えを使って・・・&lt;/span&gt;&lt;br style=&quot;text-align: left ; white-space: normal&quot;&gt;&lt;br style=&quot;text-align: left ; white-space: normal&quot;&gt;&lt;div style=&quot;text-align: left&quot;&gt;&lt;span&gt;社内で10分の説明をしてもらう&lt;/span&gt;&lt;/div&gt;" style="text;html=1;strokeColor=none;fillColor=none;align=center;verticalAlign=middle;whiteSpace=wrap;rounded=0;" vertex="1" parent="1">
          <mxGeometry x="20" y="227" width="130" height="65" as="geometry"/>
        </mxCell>
        <mxCell id="iUNpqNU1USU1O7P9q8eT-70" value="" style="ellipse;shape=cloud;whiteSpace=wrap;html=1;align=left;" vertex="1" parent="1">
          <mxGeometry x="-15" y="470" width="180" height="106.5" as="geometry"/>
        </mxCell>
        <mxCell id="iUNpqNU1USU1O7P9q8eT-71" value="&lt;span style=&quot;text-align: left ; white-space: normal&quot;&gt;答えを使って・・・&lt;/span&gt;&lt;br style=&quot;text-align: left ; white-space: normal&quot;&gt;&lt;br style=&quot;text-align: left ; white-space: normal&quot;&gt;&lt;div style=&quot;text-align: left&quot;&gt;納得した旨をメールしてもらう&lt;/div&gt;" style="text;html=1;strokeColor=none;fillColor=none;align=center;verticalAlign=middle;whiteSpace=wrap;rounded=0;" vertex="1" parent="1">
          <mxGeometry x="20" y="493.75" width="130" height="65" as="geometry"/>
        </mxCell>
        <mxCell id="iUNpqNU1USU1O7P9q8eT-72" value="1" style="text;html=1;strokeColor=none;fillColor=none;align=center;verticalAlign=middle;whiteSpace=wrap;rounded=0;" vertex="1" parent="1">
          <mxGeometry x="840" y="267" width="40" height="20" as="geometry"/>
        </mxCell>
        <mxCell id="iUNpqNU1USU1O7P9q8eT-73" value="&lt;font style=&quot;font-size: 20px&quot;&gt;*&lt;/font&gt;" style="text;html=1;strokeColor=none;fillColor=none;align=center;verticalAlign=middle;whiteSpace=wrap;rounded=0;" vertex="1" parent="1">
          <mxGeometry x="842" y="357" width="40" height="20" as="geometry"/>
        </mxCell>
        <mxCell id="iUNpqNU1USU1O7P9q8eT-75" value="0..." style="text;html=1;strokeColor=none;fillColor=none;align=center;verticalAlign=middle;whiteSpace=wrap;rounded=0;" vertex="1" parent="1">
          <mxGeometry x="947" y="354" width="40" height="20" as="geometry"/>
        </mxCell>
        <mxCell id="iUNpqNU1USU1O7P9q8eT-76" value="&lt;font style=&quot;font-size: 20px&quot;&gt;*&lt;/font&gt;" style="text;html=1;strokeColor=none;fillColor=none;align=center;verticalAlign=middle;whiteSpace=wrap;rounded=0;" vertex="1" parent="1">
          <mxGeometry x="961" y="357" width="40" height="20" as="geometry"/>
        </mxCell>
      </root>
    </mxGraphModel>
  </diagram>
</mxfile>
